# xmcd CD database file
#
# Track frame offsets:
#	3287
#	23600
#	44072
#	71082
#	92440
#	108775
#	124547
#	138920
#	163380
#	177065
#	192540
#
# Disc length: 2837 seconds
#
# Revision: 0
# Processed by: cddbd v1.5.1PL2 Copyright (c) Steve Scherf et al.
# Submitted via: CDex 1.51
#
DISCID=970aea0b
DTITLE=LUIC - LUIC
DYEAR=1998
DGENRE=Techno
TTITLE0=BUTTERFLY
TTITLE1=GO TOO CLOSE
TTITLE2=HAZE(ANOTHER DAY)
TTITLE3=SPARKLE
TTITLE4=SNOWBALLS IN FAIRYLAND
TTITLE5=WITCHDANCE
TTITLE6=BUBBLES
TTITLE7=INTOXICATED MIND
TTITLE8=SO FULL-SO EMPTY
TTITLE9=CARCRASH
TTITLE10=MAKE-BELIEVE
EXTD=
EXTT0=
EXTT1=
EXTT2=
EXTT3=
EXTT4=
EXTT5=
EXTT6=
EXTT7=
EXTT8=
EXTT9=
EXTT10=
PLAYORDER=
